<?xml version="1.0" encoding="UTF-8"?>
<svg xmlns="http://www.w3.org/2000/svg" xmlns:xlink="http://www.w3.org/1999/xlink" width="672.716pt" height="771.053pt" viewBox="0 0 672.716 771.053" version="1.1">
<defs>
<clipPath id="clip1">
  <path d="M 0 0 L 672.714844 0 L 672.714844 771.054688 L 0 771.054688 Z M 0 0 "/>
</clipPath>
<clipPath id="clip2">
  <rect width="673" height="772"/>
</clipPath>
<g id="surface4" clip-path="url(#clip2)">
<path style=" stroke:none;fill-rule:nonzero;fill:rgb(100%,100%,56.077576%);fill-opacity:1;" d="M 337.460938 765.109375 C 421.871094 677.527344 421.871094 536.128906 337.460938 448.546875 "/>
<path style=" stroke:none;fill-rule:nonzero;fill:rgb(0%,0%,0%);fill-opacity:1;" d="M 339.316406 766.964844 C 388.402344 715.78125 410.695313 644.015625 401.066406 573.953125 C 394.519531 526.285156 372.59375 481.382813 339.316406 446.6875 C 336.96875 444.242188 333.261719 447.957031 335.605469 450.402344 C 385.277344 502.195313 407.003906 575.96875 394.699219 646.542969 C 387.070313 690.316406 366.347656 731.195313 335.605469 763.25 C 333.261719 765.695313 336.96875 769.410156 339.316406 766.964844 Z M 339.316406 766.964844 "/>
<path style=" stroke:none;fill-rule:nonzero;fill:rgb(0%,0%,0%);fill-opacity:1;" d="M 337.460938 765.109375 C 336.0625 738.726563 335.328125 712.347656 334.835938 685.96875 C 334.34375 659.585938 334.074219 633.207031 334.085938 606.824219 C 334.066406 580.445313 334.335938 554.066406 334.820313 527.683594 C 335.320313 501.304688 336.054688 474.925781 337.460938 448.542969 C 338.859375 474.925781 339.597656 501.304688 340.09375 527.683594 C 340.578125 554.066406 340.851563 580.445313 340.828125 606.824219 C 340.839844 633.207031 340.574219 659.585938 340.078125 685.96875 C 339.585938 712.347656 338.855469 738.726563 337.460938 765.109375 Z M 337.460938 765.109375 "/>
<path style=" stroke:none;fill-rule:nonzero;fill:rgb(100%,100%,100%);fill-opacity:1;" d="M 337.460938 765.109375 C 253.039063 677.527344 253.039063 536.128906 337.460938 448.546875 "/>
<path style=" stroke:none;fill-rule:nonzero;fill:rgb(0%,0%,0%);fill-opacity:1;" d="M 339.316406 763.25 C 289.636719 711.457031 267.914063 637.683594 280.214844 567.109375 C 287.84375 523.335938 308.570313 482.457031 339.316406 450.402344 C 341.65625 447.960938 337.949219 444.242188 335.605469 446.691406 C 286.511719 497.871094 264.222656 569.636719 273.851563 639.703125 C 280.398438 687.367188 302.324219 732.269531 335.605469 766.964844 C 337.945313 769.410156 341.65625 765.695313 339.316406 763.25 Z M 339.316406 763.25 "/>
<path style=" stroke:none;fill-rule:nonzero;fill:rgb(78.430176%,100%,44.313049%);fill-opacity:1;" d="M 666.441406 575.171875 C 632.800781 458.273438 510.347656 387.574219 392.285156 416.890625 "/>
<path style=" stroke:none;fill-rule:nonzero;fill:rgb(0%,0%,0%);fill-opacity:1;" d="M 668.972656 574.472656 C 649.734375 508.21875 600.714844 453.675781 537.433594 426.472656 C 491.574219 406.761719 440.0625 402.445313 391.59375 414.359375 C 388.304688 415.164063 389.695313 420.226563 392.988281 419.421875 C 460.769531 402.761719 533.488281 419.375 588.027344 462.75 C 624.300781 491.59375 650.988281 531.375 663.90625 575.867188 C 664.851563 579.113281 669.914063 577.730469 668.972656 574.472656 Z M 668.972656 574.472656 "/>
<path style=" stroke:none;fill-rule:nonzero;fill:rgb(100%,100%,100%);fill-opacity:1;" d="M 666.441406 575.171875 L 392.285156 416.890625 "/>
<path style=" stroke:none;fill-rule:nonzero;fill:rgb(0%,0%,0%);fill-opacity:1;" d="M 666.441406 575.171875 C 642.898438 563.1875 619.6875 550.632813 596.589844 537.871094 C 573.496094 525.109375 550.523438 512.148438 527.679688 498.953125 C 504.820313 485.777344 482.109375 472.355469 459.511719 458.742188 C 436.90625 445.121094 414.433594 431.296875 392.285156 416.890625 C 415.835938 428.863281 439.050781 441.417969 462.144531 454.179688 C 485.234375 466.945313 508.214844 479.902344 531.050781 493.109375 C 553.902344 506.292969 576.613281 519.710938 599.214844 533.328125 C 621.8125 546.949219 644.289063 560.769531 666.441406 575.171875 Z M 666.441406 575.171875 "/>
<path style=" stroke:none;fill-rule:nonzero;fill:rgb(100%,100%,100%);fill-opacity:1;" d="M 666.441406 575.171875 C 548.386719 604.484375 425.929688 533.785156 392.285156 416.890625 "/>
<path style=" stroke:none;fill-rule:nonzero;fill:rgb(0%,0%,0%);fill-opacity:1;" d="M 665.738281 572.640625 C 597.960938 589.300781 525.242188 572.683594 470.699219 529.3125 C 434.429688 500.46875 407.738281 460.683594 394.820313 416.191406 C 393.878906 412.945313 388.8125 414.328125 389.757813 417.585938 C 408.992188 483.839844 458.019531 538.382813 521.296875 565.585938 C 567.152344 585.296875 618.664063 589.613281 667.140625 577.699219 C 670.425781 576.894531 669.027344 571.832031 665.738281 572.640625 Z M 665.738281 572.640625 "/>
<path style=" stroke:none;fill-rule:nonzero;fill:rgb(78.430176%,100%,44.313049%);fill-opacity:1;" d="M 666.441406 195.296875 C 548.386719 165.980469 425.929688 236.679688 392.285156 353.578125 "/>
<path style=" stroke:none;fill-rule:nonzero;fill:rgb(0%,0%,0%);fill-opacity:1;" d="M 667.140625 192.765625 C 600.113281 176.289063 528.359375 191.464844 473.136719 232.683594 C 433.160156 262.519531 403.664063 304.976563 389.757813 352.878906 C 388.8125 356.136719 393.878906 357.519531 394.820313 354.273438 C 414.289063 287.214844 465.027344 232.546875 529.890625 206.988281 C 572.984375 190.003906 620.773438 186.773438 665.738281 197.828125 C 669.027344 198.636719 670.425781 193.570313 667.140625 192.765625 Z M 667.140625 192.765625 "/>
<path style=" stroke:none;fill-rule:nonzero;fill:rgb(100%,100%,100%);fill-opacity:1;" d="M 666.441406 195.296875 L 392.285156 353.578125 "/>
<path style=" stroke:none;fill-rule:nonzero;fill:rgb(0%,0%,0%);fill-opacity:1;" d="M 666.441406 195.296875 C 644.289063 209.695313 621.8125 223.519531 599.214844 237.136719 C 576.613281 250.753906 553.902344 264.171875 531.050781 277.355469 C 508.214844 290.5625 485.234375 303.519531 462.144531 316.285156 C 439.050781 329.046875 415.839844 341.601563 392.285156 353.574219 C 414.433594 339.167969 436.90625 325.34375 459.511719 311.726563 C 482.109375 298.109375 504.820313 284.6875 527.679688 271.515625 C 550.523438 258.320313 573.496094 245.355469 596.589844 232.59375 C 619.6875 219.832031 642.898438 207.277344 666.441406 195.296875 Z M 666.441406 195.296875 "/>
<path style=" stroke:none;fill-rule:nonzero;fill:rgb(100%,100%,100%);fill-opacity:1;" d="M 666.441406 195.296875 C 632.800781 312.191406 510.347656 382.890625 392.285156 353.578125 "/>
<path style=" stroke:none;fill-rule:nonzero;fill:rgb(0%,0%,0%);fill-opacity:1;" d="M 663.90625 194.597656 C 644.4375 261.65625 593.695313 316.324219 528.839844 341.882813 C 485.742188 358.867188 437.953125 362.097656 392.988281 351.046875 C 389.695313 350.238281 388.304688 355.300781 391.59375 356.109375 C 458.609375 372.582031 530.367188 357.40625 585.59375 316.1875 C 625.566406 286.351563 655.0625 243.894531 668.972656 195.992188 C 669.914063 192.734375 664.851563 191.351563 663.90625 194.597656 Z M 663.90625 194.597656 "/>
<path style=" stroke:none;fill-rule:nonzero;fill:rgb(100%,100%,100%);fill-opacity:1;" d="M 337.460938 5.359375 C 421.871094 92.941406 421.871094 234.339844 337.460938 321.917969 "/>
<path style=" stroke:none;fill-rule:nonzero;fill:rgb(0%,0%,0%);fill-opacity:1;" d="M 335.601563 7.214844 C 385.277344 59.007813 407.003906 132.78125 394.699219 203.355469 C 387.070313 247.128906 366.347656 288.007813 335.601563 320.0625 C 333.261719 322.503906 336.96875 326.222656 339.316406 323.777344 C 388.402344 272.59375 410.695313 200.828125 401.066406 130.761719 C 394.519531 83.097656 372.59375 38.195313 339.316406 3.5 C 336.96875 1.054688 333.261719 4.769531 335.601563 7.214844 Z M 335.601563 7.214844 "/>
<path style=" stroke:none;fill-rule:nonzero;fill:rgb(0%,0%,0%);fill-opacity:1;" d="M 337.460938 5.359375 C 338.855469 31.738281 339.585938 58.117188 340.078125 84.5 C 340.574219 110.878906 340.839844 137.257813 340.828125 163.640625 C 340.851563 190.019531 340.578125 216.398438 340.09375 242.78125 C 339.597656 269.160156 338.859375 295.539063 337.460938 321.921875 C 336.054688 295.539063 335.320313 269.160156 334.820313 242.78125 C 334.335938 216.398438 334.066406 190.019531 334.085938 163.640625 C 334.074219 137.257813 334.34375 110.878906 334.835938 84.5 C 335.328125 58.117188 336.0625 31.738281 337.460938 5.359375 Z M 337.460938 5.359375 "/>
<path style=" stroke:none;fill-rule:nonzero;fill:rgb(78.430176%,100%,100%);fill-opacity:1;" d="M 337.460938 5.359375 C 253.039063 92.941406 253.039063 234.339844 337.460938 321.917969 "/>
<path style=" stroke:none;fill-rule:nonzero;fill:rgb(0%,0%,0%);fill-opacity:1;" d="M 335.601563 3.5 C 286.511719 54.683594 264.222656 126.449219 273.851563 196.511719 C 280.398438 244.179688 302.320313 289.082031 335.601563 323.777344 C 337.945313 326.222656 341.652344 322.507813 339.316406 320.066406 C 289.636719 268.269531 267.910156 194.496094 280.214844 123.921875 C 287.84375 80.148438 308.570313 39.269531 339.316406 7.214844 C 341.65625 4.769531 337.945313 1.054688 335.601563 3.5 Z M 335.601563 3.5 "/>
<path style=" stroke:none;fill-rule:nonzero;fill:rgb(100%,100%,100%);fill-opacity:1;" d="M 8.476563 575.171875 C 42.113281 458.273438 164.570313 387.574219 282.628906 416.890625 "/>
<path style=" stroke:none;fill-rule:nonzero;fill:rgb(0%,0%,0%);fill-opacity:1;" d="M 11.007813 575.867188 C 30.480469 508.808594 81.21875 454.140625 146.078125 428.582031 C 189.171875 411.597656 236.960938 408.367188 281.929688 419.417969 C 285.21875 420.226563 286.609375 415.164063 283.324219 414.355469 C 216.304688 397.882813 144.546875 413.058594 89.320313 454.277344 C 49.355469 484.113281 19.855469 526.570313 5.945313 574.472656 C 4.996094 577.730469 10.066406 579.113281 11.007813 575.867188 Z M 11.007813 575.867188 "/>
<path style=" stroke:none;fill-rule:nonzero;fill:rgb(100%,100%,100%);fill-opacity:1;" d="M 8.476563 575.171875 L 282.628906 416.890625 "/>
<path style=" stroke:none;fill-rule:nonzero;fill:rgb(0%,0%,0%);fill-opacity:1;" d="M 8.476563 575.171875 C 30.621094 560.769531 53.105469 546.949219 75.699219 533.328125 C 98.304688 519.710938 121.015625 506.292969 143.863281 493.109375 C 166.699219 479.902344 189.683594 466.945313 212.773438 454.179688 C 235.863281 441.417969 259.078125 428.863281 282.628906 416.890625 C 260.488281 431.296875 238.007813 445.121094 215.40625 458.742188 C 192.808594 472.355469 170.097656 485.777344 147.238281 498.953125 C 124.398438 512.148438 101.421875 525.109375 78.324219 537.871094 C 55.234375 550.632813 32.023438 563.1875 8.476563 575.171875 Z M 8.476563 575.171875 "/>
<path style=" stroke:none;fill-rule:nonzero;fill:rgb(78.430176%,100%,56.077576%);fill-opacity:1;" d="M 8.476563 575.171875 C 126.53125 604.484375 248.988281 533.785156 282.628906 416.890625 "/>
<path style=" stroke:none;fill-rule:nonzero;fill:rgb(0%,0%,0%);fill-opacity:1;" d="M 7.777344 577.703125 C 74.804688 594.175781 146.558594 579 201.777344 537.78125 C 241.753906 507.945313 271.253906 465.488281 285.15625 417.585938 C 286.109375 414.328125 281.035156 412.945313 280.097656 416.191406 C 260.628906 483.25 209.886719 537.917969 145.027344 563.476563 C 101.933594 580.460938 54.144531 583.691406 9.175781 572.640625 C 5.886719 571.832031 4.488281 576.894531 7.777344 577.703125 Z M 7.777344 577.703125 "/>
<path style=" stroke:none;fill-rule:nonzero;fill:rgb(100%,100%,100%);fill-opacity:1;" d="M 8.476563 195.296875 C 126.53125 165.980469 248.988281 236.679688 282.628906 353.578125 "/>
<path style=" stroke:none;fill-rule:nonzero;fill:rgb(0%,0%,0%);fill-opacity:1;" d="M 9.175781 197.828125 C 76.953125 181.164063 149.675781 197.78125 204.214844 241.152344 C 240.488281 269.996094 267.179688 309.78125 280.097656 354.273438 C 281.035156 357.519531 286.105469 356.136719 285.15625 352.878906 C 265.925781 286.628906 216.902344 232.082031 153.617188 204.878906 C 107.769531 185.167969 56.246094 180.851563 7.777344 192.765625 C 4.488281 193.570313 5.886719 198.636719 9.175781 197.828125 Z M 9.175781 197.828125 "/>
<path style=" stroke:none;fill-rule:nonzero;fill:rgb(100%,100%,100%);fill-opacity:1;" d="M 8.476563 195.296875 L 282.628906 353.578125 "/>
<path style=" stroke:none;fill-rule:nonzero;fill:rgb(0%,0%,0%);fill-opacity:1;" d="M 8.476563 195.296875 C 32.023438 207.277344 55.234375 219.832031 78.324219 232.59375 C 101.421875 245.355469 124.398438 258.320313 147.238281 271.515625 C 170.097656 284.6875 192.808594 298.109375 215.40625 311.726563 C 238.007813 325.34375 260.488281 339.167969 282.628906 353.574219 C 259.078125 341.601563 235.863281 329.046875 212.773438 316.285156 C 189.683594 303.519531 166.699219 290.5625 143.863281 277.355469 C 121.019531 264.171875 98.304688 250.753906 75.699219 237.136719 C 53.105469 223.519531 30.621094 209.695313 8.476563 195.296875 Z M 8.476563 195.296875 "/>
<path style=" stroke:none;fill-rule:nonzero;fill:rgb(78.430176%,100%,100%);fill-opacity:1;" d="M 8.476563 195.296875 C 42.113281 312.191406 164.570313 382.890625 282.628906 353.578125 "/>
<path style=" stroke:none;fill-rule:nonzero;fill:rgb(0%,0%,0%);fill-opacity:1;" d="M 5.945313 195.992188 C 25.183594 262.246094 74.203125 316.789063 137.484375 343.992188 C 183.339844 363.703125 234.855469 368.019531 283.324219 356.105469 C 286.609375 355.300781 285.21875 350.234375 281.929688 351.042969 C 214.148438 367.707031 141.433594 351.089844 86.890625 307.71875 C 50.617188 278.875 23.929688 239.089844 11.011719 194.597656 C 10.066406 191.351563 4.996094 192.734375 5.945313 195.992188 Z M 5.945313 195.992188 "/>
</g>
</defs>
<g id="surface1">
<g clip-path="url(#clip1)" clip-rule="nonzero">
<use xlink:href="#surface4"/>
</g>
</g>
</svg>
