<?xml version="1.0" encoding="utf-8"?>
<!-- Generator: Adobe Illustrator 15.0.0, SVG Export Plug-In . SVG Version: 6.00 Build 0)  -->
<!DOCTYPE svg PUBLIC "-//W3C//DTD SVG 1.1//EN" "http://www.w3.org/Graphics/SVG/1.1/DTD/svg11.dtd">
<svg version="1.1" id="图层_1" xmlns="http://www.w3.org/2000/svg" xmlns:xlink="http://www.w3.org/1999/xlink" x="0px" y="0px"
	 width="2383.939px" height="1678.11px" viewBox="0 0 2383.939 1678.11" enable-background="new 0 0 2383.939 1678.11"
	 xml:space="preserve">
<g id="LWPOLYLINE_18_">
	<g>
		<path fill="#FFFF8F" d="M1349.878,1312.18c112.556-116.775,112.556-305.307,0-422.082"/>
		<g>
			<path d="M1352.353,1314.654c65.455-68.241,95.173-163.93,82.337-257.348c-8.731-63.555-37.967-123.425-82.337-169.684
				c-3.13-3.264-8.073,1.693-4.949,4.949c66.239,69.06,95.198,167.425,78.8,261.521c-10.171,58.365-37.806,112.871-78.8,155.611
				C1344.279,1312.961,1349.223,1317.918,1352.353,1314.654L1352.353,1314.654z"/>
		</g>
	</g>
</g>
<g id="LWPOLYLINE_19_">
	<g>
		<line fill="#FFFFFF" x1="1349.878" y1="1312.18" x2="1349.878" y2="890.098"/>
		<path d="M1349.878,1312.18c-1.862-35.174-2.836-70.347-3.498-105.521c-0.658-35.174-1.008-70.347-1.001-105.521
			c-0.023-35.174,0.335-70.347,0.987-105.521c0.659-35.174,1.639-70.347,3.512-105.521c1.873,35.174,2.853,70.347,3.512,105.521
			c0.652,35.174,1.011,70.347,0.987,105.521c0.007,35.174-0.343,70.347-1.001,105.521
			C1352.714,1241.833,1351.74,1277.006,1349.878,1312.18z"/>
	</g>
</g>
<g id="LWPOLYLINE_20_">
	<g>
		<path fill="#FFFFFF" d="M1349.878,1312.18c-112.556-116.775-112.556-305.307,0-422.082"/>
		<g>
			<path d="M1352.353,1309.705c-66.239-69.061-95.198-167.425-78.8-261.521c10.171-58.365,37.806-112.871,78.8-155.611
				c3.124-3.256-1.819-8.213-4.949-4.949c-65.455,68.241-95.173,163.93-82.337,257.348c8.731,63.555,37.967,123.425,82.337,169.684
				C1350.533,1317.918,1355.477,1312.961,1352.353,1309.705L1352.353,1309.705z"/>
		</g>
	</g>
</g>
<g id="LWPOLYLINE_21_">
	<g>
		<path fill="#C8FF71" d="M1788.521,1058.93c-44.854-155.863-208.126-250.129-365.535-211.041"/>
		<g>
			<path d="M1791.896,1057.999c-25.649-88.335-91.013-161.062-175.386-197.331c-61.138-26.282-129.828-32.039-194.455-16.154
				c-4.382,1.077-2.522,7.827,1.861,6.75c90.375-22.214,187.332-0.059,260.053,57.77c48.362,38.459,83.952,91.504,101.177,150.827
				C1786.401,1064.187,1793.157,1062.344,1791.896,1057.999L1791.896,1057.999z"/>
		</g>
	</g>
</g>
<g id="LWPOLYLINE_22_">
	<g>
		<line fill="#FFFFFF" x1="1788.521" y1="1058.93" x2="1422.985" y2="847.889"/>
		<path d="M1788.521,1058.93c-31.393-15.975-62.341-32.717-93.133-49.73c-30.79-17.017-61.427-34.301-91.884-51.895
			c-30.474-17.565-60.756-35.463-90.891-53.614c-30.132-18.158-60.104-36.593-89.628-55.802
			c31.397,15.965,62.349,32.703,93.14,49.719c30.787,17.022,61.428,34.299,91.877,51.906c30.465,17.58,60.752,35.47,90.884,53.626
			C1729.016,1021.3,1758.99,1039.73,1788.521,1058.93z"/>
	</g>
</g>
<g id="LWPOLYLINE_23_">
	<g>
		<path fill="#FFFFFF" d="M1788.521,1058.93c-157.409,39.088-320.682-55.178-365.535-211.041"/>
		<g>
			<path d="M1787.59,1055.555c-90.375,22.214-187.332,0.059-260.054-57.77c-48.362-38.459-83.951-91.504-101.176-150.827
				c-1.256-4.326-8.012-2.483-6.75,1.861c25.648,88.335,91.013,161.062,175.386,197.331
				c61.138,26.281,129.828,32.039,194.455,16.154C1793.833,1061.228,1791.974,1054.478,1787.59,1055.555L1787.59,1055.555z"/>
		</g>
	</g>
</g>
<g id="LWPOLYLINE_24_">
	<g>
		<path fill="#C8FF71" d="M1788.521,552.43c-157.409-39.088-320.682,55.178-365.535,211.042"/>
		<g>
			<path d="M1789.451,549.055c-89.363-21.965-185.037-1.732-258.669,53.228c-53.296,39.781-92.628,96.39-111.172,160.258
				c-1.262,4.345,5.494,6.188,6.75,1.861c25.962-89.414,93.614-162.303,180.095-196.382
				c57.459-22.643,121.176-26.953,181.135-12.215C1791.974,556.883,1793.833,550.132,1789.451,549.055L1789.451,549.055z"/>
		</g>
	</g>
</g>
<g id="LWPOLYLINE_25_">
	<g>
		<line fill="#FFFFFF" x1="1788.521" y1="552.43" x2="1422.985" y2="763.472"/>
		<path d="M1788.521,552.43c-29.53,19.2-59.505,37.63-89.635,55.79c-30.132,18.157-60.419,36.046-90.884,53.626
			c-30.449,17.607-61.09,34.884-91.877,51.906c-30.791,17.016-61.742,33.755-93.14,49.719
			c29.524-19.209,59.496-37.644,89.628-55.801c30.135-18.152,60.417-36.049,90.891-53.615
			c30.457-17.593,61.094-34.877,91.884-51.894C1726.18,585.147,1757.128,568.404,1788.521,552.43z"/>
	</g>
</g>
<g id="LWPOLYLINE_26_">
	<g>
		<path fill="#FFFFFF" d="M1788.521,552.43c-44.854,155.864-208.126,250.129-365.535,211.042"/>
		<g>
			<path d="M1785.146,551.5c-25.962,89.414-93.614,162.303-180.095,196.382c-57.459,22.643-121.176,26.953-181.135,12.215
				c-4.384-1.078-6.243,5.673-1.861,6.75c89.363,21.965,185.037,1.732,258.668-53.228c53.296-39.781,92.628-96.39,111.173-160.259
				C1793.157,549.016,1786.401,547.173,1785.146,551.5L1785.146,551.5z"/>
		</g>
	</g>
</g>
<g id="LWPOLYLINE_27_">
	<g>
		<path fill="#FFFFFF" d="M1349.878,299.18c112.556,116.776,112.556,305.307,0,422.083"/>
		<g>
			<path d="M1347.403,301.655c66.239,69.06,95.199,167.425,78.8,261.521c-10.171,58.365-37.806,112.872-78.8,155.612
				c-3.124,3.256,1.819,8.212,4.949,4.949c65.455-68.242,95.173-163.931,82.337-257.349
				c-8.731-63.555-37.967-123.425-82.337-169.685C1349.223,293.442,1344.279,298.398,1347.403,301.655L1347.403,301.655z"/>
		</g>
	</g>
</g>
<g id="LWPOLYLINE_28_">
	<g>
		<line fill="#FFFFFF" x1="1349.878" y1="299.18" x2="1349.878" y2="721.264"/>
		<path d="M1349.878,299.18c1.862,35.174,2.836,70.347,3.498,105.521c0.658,35.173,1.008,70.347,1.001,105.521
			c0.023,35.174-0.335,70.348-0.987,105.521c-0.659,35.174-1.639,70.347-3.512,105.521c-1.873-35.174-2.853-70.347-3.512-105.521
			c-0.652-35.173-1.011-70.347-0.987-105.521c-0.007-35.173,0.343-70.347,1.001-105.521
			C1347.042,369.527,1348.016,334.354,1349.878,299.18z"/>
	</g>
</g>
<g id="LWPOLYLINE_29_">
	<g>
		<path fill="#C8FFFF" d="M1349.878,299.18c-112.556,116.776-112.556,305.307,0,422.083"/>
		<g>
			<path d="M1347.403,296.705c-65.455,68.242-95.173,163.931-82.337,257.349c8.731,63.555,37.967,123.425,82.337,169.685
				c3.13,3.263,8.073-1.693,4.949-4.949c-66.239-69.061-95.199-167.425-78.8-261.522c10.171-58.365,37.806-112.871,78.8-155.611
				C1355.477,298.398,1350.533,293.442,1347.403,296.705L1347.403,296.705z"/>
		</g>
	</g>
</g>
<g id="LWPOLYLINE_30_">
	<g>
		<path fill="#FFFFFF" d="M911.236,1058.93c44.854-155.863,208.126-250.129,365.535-211.041"/>
		<g>
			<path d="M914.611,1059.86c25.961-89.414,93.614-162.303,180.095-196.382c57.458-22.643,121.176-26.953,181.135-12.215
				c4.384,1.077,6.243-5.673,1.861-6.75c-89.364-21.965-185.038-1.732-258.669,53.228c-53.295,39.781-92.627,96.39-111.172,160.258
				C906.6,1062.344,913.355,1064.187,914.611,1059.86L914.611,1059.86z"/>
		</g>
	</g>
</g>
<g id="LWPOLYLINE_31_">
	<g>
		<line fill="#FFFFFF" x1="911.236" y1="1058.93" x2="1276.771" y2="847.889"/>
		<path d="M911.236,1058.93c29.53-19.199,59.504-37.63,89.635-55.79c30.132-18.156,60.418-36.046,90.884-53.626
			c30.449-17.607,61.089-34.884,91.877-51.906c30.791-17.016,61.741-33.754,93.14-49.719
			c-29.524,19.209-59.496,37.644-89.628,55.802c-30.135,18.151-60.417,36.049-90.891,53.614
			c-30.457,17.594-61.093,34.878-91.884,51.895C973.577,1026.213,942.629,1042.955,911.236,1058.93z"/>
	</g>
</g>
<g id="LWPOLYLINE_32_">
	<g>
		<path fill="#C8FF8F" d="M911.236,1058.93c157.409,39.088,320.682-55.178,365.535-211.041"/>
		<g>
			<path d="M910.306,1062.305c89.364,21.965,185.038,1.732,258.669-53.228c53.296-39.781,92.628-96.39,111.172-160.258
				c1.262-4.345-5.494-6.188-6.75-1.861c-25.961,89.414-93.614,162.303-180.095,196.382
				c-57.458,22.643-121.176,26.953-181.135,12.215C907.783,1054.478,905.924,1061.228,910.306,1062.305L910.306,1062.305z"/>
		</g>
	</g>
</g>
<g id="LWPOLYLINE_33_">
	<g>
		<path fill="#FFFFFF" d="M911.236,552.43c157.409-39.088,320.682,55.178,365.535,211.042"/>
		<g>
			<path d="M912.167,555.805c90.375-22.214,187.332-0.059,260.053,57.77c48.363,38.458,83.952,91.504,101.176,150.827
				c1.256,4.326,8.012,2.484,6.75-1.861c-25.648-88.335-91.012-161.062-175.385-197.332
				c-61.138-26.282-129.829-32.039-194.456-16.154C905.924,550.132,907.783,556.883,912.167,555.805L912.167,555.805z"/>
		</g>
	</g>
</g>
<g id="LWPOLYLINE_34_">
	<g>
		<line fill="#FFFFFF" x1="911.236" y1="552.43" x2="1276.771" y2="763.472"/>
		<path d="M911.236,552.43c31.393,15.974,62.341,32.717,93.133,49.731c30.791,17.017,61.427,34.301,91.884,51.894
			c30.474,17.566,60.755,35.463,90.891,53.615c30.132,18.158,60.104,36.592,89.628,55.801
			c-31.398-15.964-62.349-32.704-93.14-49.719c-30.788-17.022-61.428-34.298-91.877-51.906
			c-30.465-17.58-60.752-35.47-90.884-53.626C970.741,590.06,940.767,571.63,911.236,552.43z"/>
	</g>
</g>
<g id="LWPOLYLINE_35_">
	<g>
		<path fill="#C8FFFF" d="M911.236,552.43c44.854,155.864,208.126,250.129,365.535,211.042"/>
		<g>
			<path d="M907.861,553.36c25.648,88.336,91.012,161.063,175.385,197.332c61.138,26.282,129.829,32.039,194.456,16.154
				c4.382-1.077,2.522-7.828-1.861-6.75c-90.375,22.214-187.332,0.059-260.053-57.77c-48.363-38.458-83.952-91.504-101.176-150.827
				C913.355,547.173,906.6,549.016,907.861,553.36L907.861,553.36z"/>
		</g>
	</g>
</g>
</svg>
